<svg width="15" height="15" viewBox="0 0 15 15" fill="none" xmlns="http://www.w3.org/2000/svg">
<g clip-path="url(#clip0_83_91)">
<path d="M2 13.4261C2 13.8097 2.1524 14.1776 2.42366 14.4489C2.69493 14.7202 3.06285 14.8726 3.44648 14.8726L9.23239 14.8726C9.61602 14.8726 9.98394 14.7202 10.2552 14.4489C10.5265 14.1776 10.6789 13.8097 10.6789 13.4261L10.6789 3.30074C10.6789 2.91711 10.5265 2.54919 10.2552 2.27792C9.98394 2.00665 9.61602 1.85426 9.23239 1.85426L8.50915 1.85426C8.50915 1.47063 8.35675 1.10271 8.08549 0.831444C7.81422 0.560177 7.4463 0.407781 7.06267 0.407781L5.61619 0.407781C5.23256 0.407781 4.86465 0.560177 4.59338 0.831445C4.32211 1.10271 4.16972 1.47063 4.16972 1.85426L3.44648 1.85426C3.06285 1.85426 2.69493 2.00666 2.42366 2.27792C2.1524 2.54919 2 2.91711 2 3.30074L2 13.4261Z" fill="#901F63"/>
</g>
<defs>
<clipPath id="clip0_83_91">
<rect width="15" height="15" fill="white" transform="translate(0 15) rotate(-90)"/>
</clipPath>
</defs>
</svg>
