<svg width="16" height="16" viewBox="0 0 16 16" fill="none" xmlns="http://www.w3.org/2000/svg">
<path d="M12.5547 9.10938C12.7005 9.40625 12.8099 9.71354 12.8828 10.0312C12.9557 10.349 12.9948 10.6719 13 11C13 11.4583 12.9401 11.901 12.8203 12.3281C12.7005 12.7552 12.5339 13.1536 12.3203 13.5234C12.1068 13.8932 11.8464 14.2292 11.5391 14.5312C11.2318 14.8333 10.8932 15.0938 10.5234 15.3125C10.1536 15.5312 9.75521 15.7005 9.32812 15.8203C8.90104 15.9401 8.45833 16 8 16C7.54167 16 7.09896 15.9401 6.67188 15.8203C6.24479 15.7005 5.84635 15.5339 5.47656 15.3203C5.10677 15.1068 4.77083 14.8464 4.46875 14.5391C4.16667 14.2318 3.90625 13.8932 3.6875 13.5234C3.46875 13.1536 3.29948 12.7552 3.17969 12.3281C3.0599 11.901 3 11.4583 3 11C3 10.6719 3.03646 10.349 3.10938 10.0312C3.18229 9.71354 3.29427 9.40625 3.44531 9.10938L8 0L12.5547 9.10938Z" fill="#901F63"/>
<path fill-rule="evenodd" clip-rule="evenodd" d="M8.66709 6.66651C8.66713 6.59323 8.64302 6.52199 8.59849 6.46379C8.55396 6.40559 8.4915 6.36369 8.42076 6.34456C8.35002 6.32544 8.27496 6.33015 8.20717 6.35798C8.13938 6.38581 8.08265 6.4352 8.04576 6.49851L5.71242 10.4985C5.68286 10.5492 5.66719 10.6067 5.66699 10.6654C5.6668 10.724 5.68207 10.7817 5.71129 10.8326C5.74051 10.8834 5.78262 10.9257 5.83339 10.955C5.88416 10.9844 5.94177 10.9999 6.00042 10.9998H7.33376V13.3332C7.33372 13.4065 7.35783 13.4777 7.40236 13.5359C7.44689 13.5941 7.50935 13.636 7.58009 13.6551C7.65082 13.6743 7.72589 13.6695 7.79368 13.6417C7.86147 13.6139 7.9182 13.5645 7.95509 13.5012L10.2884 9.50118C10.318 9.45052 10.3337 9.39296 10.3339 9.33431C10.3341 9.27566 10.3188 9.21799 10.2896 9.16714C10.2603 9.11628 10.2182 9.07403 10.1675 9.04466C10.1167 9.01529 10.0591 8.99983 10.0004 8.99984H8.66709V6.66651Z" fill="white"/>
</svg>
