<svg width="16" height="16" viewBox="0 0 16 16" fill="none" xmlns="http://www.w3.org/2000/svg">
<path d="M10.667 12.6668H9.33366C9.14477 12.6668 8.98655 12.6028 8.85899 12.4748C8.73144 12.3468 8.66744 12.1886 8.66699 12.0002C8.66655 11.8117 8.73055 11.6535 8.85899 11.5255C8.98744 11.3975 9.14566 11.3335 9.33366 11.3335H10.667V10.0002C10.667 9.81127 10.731 9.65305 10.859 9.5255C10.987 9.39794 11.1452 9.33394 11.3337 9.3335C11.5221 9.33305 11.6805 9.39705 11.809 9.5255C11.9374 9.65394 12.0012 9.81216 12.0003 10.0002V11.3335H13.3337C13.5225 11.3335 13.681 11.3975 13.809 11.5255C13.937 11.6535 14.0008 11.8117 14.0003 12.0002C13.9999 12.1886 13.9359 12.3471 13.8083 12.4755C13.6808 12.6039 13.5225 12.6677 13.3337 12.6668H12.0003V14.0002C12.0003 14.1891 11.9363 14.3475 11.8083 14.4755C11.6803 14.6035 11.5221 14.6673 11.3337 14.6668C11.1452 14.6664 10.987 14.6024 10.859 14.4748C10.731 14.3473 10.667 14.1891 10.667 14.0002V12.6668ZM5.33366 14.6668C5.14477 14.6668 4.98655 14.6028 4.85899 14.4748C4.73144 14.3468 4.66744 14.1886 4.66699 14.0002V3.3335C4.66699 3.14461 4.73099 2.98639 4.85899 2.85883C4.98699 2.73127 5.14521 2.66727 5.33366 2.66683H6.66699V2.00016C6.66699 1.81127 6.73099 1.65305 6.85899 1.5255C6.98699 1.39794 7.14521 1.33394 7.33366 1.3335H8.66699C8.85588 1.3335 9.01433 1.3975 9.14233 1.5255C9.27033 1.6535 9.3341 1.81172 9.33366 2.00016V2.66683H10.667C10.8559 2.66683 11.0143 2.73083 11.1423 2.85883C11.2703 2.98683 11.3341 3.14505 11.3337 3.3335V7.55016C11.3337 7.67239 11.2892 7.78083 11.2003 7.8755C11.1114 7.97016 11.0059 8.02283 10.8837 8.0335C10.417 8.08905 9.98366 8.21416 9.58366 8.40883C9.18366 8.6035 8.8281 8.85616 8.51699 9.16683C8.16144 9.52239 7.87544 9.94194 7.65899 10.4255C7.44255 10.9091 7.3341 11.4339 7.33366 12.0002C7.33366 12.3335 7.37255 12.6557 7.45033 12.9668C7.5281 13.2779 7.64477 13.5779 7.80033 13.8668C7.88921 14.0557 7.88921 14.2364 7.80033 14.4088C7.71144 14.5813 7.57255 14.6673 7.38366 14.6668H5.33366Z" fill="#3A1245"/>
</svg>
